<?xml version="1.0" encoding="UTF-8"?>
<!-- Generator: Adobe Illustrator 22.0.1, SVG Export Plug-In . SVG Version: 6.00 Build 0)  -->
<svg version="1.1" id="Layer_1" xmlns="http://www.w3.org/2000/svg" xmlns:xlink="http://www.w3.org/1999/xlink" x="0px" y="0px" viewBox="0 0 512 512" style="enable-background:new 0 0 512 512;" xml:space="preserve">
<style type="text/css">
	.st0{fill:#0069FF;}
	.st1{fill:#00D77E;}
</style>
<path class="st0" d="M330.3,92.8l-14.5,3.9l21,78.4l-69.5,69.5l-61-16.3L59.7,374.8l-25.5-6.8l114.9-114.9l-10.6-10.6L23.6,357.3  l-6.8-25.5l24.9-24.9l26-4l3.5-23l23-3.5l3.5-23l23-3.5l4-26l30.4-30.4l20.4,20.4l10.6-10.6l-24.2-24.2L147,124.2l69.5-69.5  l72.7,19.5l3.9-14.5L212,38l-81.7,81.7l16.3,61l-36.2,36.2l-3.1,19.9l-23,3.5l-3.5,23l-23,3.5l-3.5,23l-19.9,3.1L0,327.3L13.6,378  l50.6,13.6l146.6-146.6l61,16.3l81.7-81.7L330.3,92.8z"/>
<path class="st0" d="M283.7,89.9c-2.7-0.9-5.6-1.3-8.6-1.3c-15.3,0-27.8,12.5-27.8,27.8c0,15.3,12.5,27.8,27.8,27.8  s27.8-12.5,27.8-27.8c0-6.9-2.5-13.1-6.6-18c12.4-12.8,29.7-20.7,48.7-20.7c37.2,0,67.6,30.3,67.6,67.5c0,3.5-0.3,6.9-0.8,10.3  c-2-0.4-4.1-0.6-6.2-0.6c-18.3,0-33.1,14.9-33.1,33.1c0,18.3,14.9,33.1,33.1,33.1c18.3,0,33.1-14.9,33.1-33.1  c0-10.6-5.1-20.1-12.9-26.2c1.1-5.4,1.7-11,1.7-16.7c0-45.5-37-82.5-82.6-82.5C320.9,62.6,298.9,73.1,283.7,89.9z M405.6,169.9  c0.8,0,1.5,0,2.2,0.1c-3.9,10-10.2,18.9-18.5,26.1c-1.2-2.4-1.9-5.2-1.9-8.1C387.5,178,395.6,169.9,405.6,169.9z M423.8,188  c0,10-8.1,18.1-18.1,18.1c-1.5,0-3-0.2-4.4-0.5c8.4-7.8,15-17.2,19.5-27.6C422.7,180.9,423.8,184.3,423.8,188z M273.7,103.6  c-3.7,6.4-6.6,13.3-8.5,20.7c-1.7-2.2-2.8-5-2.8-8C262.4,109.8,267.3,104.4,273.7,103.6z M288,116.3c0,5.5-3.5,10.2-8.4,12  c1.6-6.2,4-12.1,7.2-17.4C287.6,112.6,288,114.4,288,116.3z"/>
<path class="st1" d="M337.8,417h135.6V237.6H337.8V417z M352.8,252.6h105.6V402H352.8V252.6z"/>
<path class="st1" d="M369.5,270.6h15V384h-15V270.6z"/>
<path class="st1" d="M398.1,270.6h15V384h-15V270.6z"/>
<path class="st1" d="M426.8,270.6h15V384h-15V270.6z"/>
<path class="st0" d="M354.9,147.5l37-27.8l9,12l-37,27.8L354.9,147.5z"/>
<path class="st0" d="M444.9,138.8l-9,12l61.2,45.9v262.1H314.3V244h-15v229.9H512V189.3L444.9,138.8z"/>
<path class="st0" d="M170.5,173.6l-12.4-46.4l22.9-22.9l10.6,10.6l-16.8,16.8l10.2,38L170.5,173.6z M198.7,107.8l-10.6-10.6  l10.6-10.6l10.6,10.6L198.7,107.8z M216.4,90.1l-10.6-10.6l10.6-10.6L227,79.5L216.4,90.1z"/>
<path class="st1" d="M479.5,448.9h-97.8v-15h97.8V448.9z M371.7,448.9h-15v-15h15V448.9z M346.7,448.9h-15v-15h15V448.9z"/>
</svg>